<svg xmlns="http://www.w3.org/2000/svg" xmlns:xlink="http://www.w3.org/1999/xlink" width="500" zoomAndPan="magnify" viewBox="0 0 375 374.999991" height="500" preserveAspectRatio="xMidYMid meet" version="1.0"><defs><clipPath id="1c2e4a7268"><path d="M 59.28125 37.5 L 315.78125 37.5 L 315.78125 337.5 L 59.28125 337.5 Z M 59.28125 37.5 " clip-rule="nonzero"/></clipPath></defs><g clip-path="url(#1c2e4a7268)"><path fill="#ebeaea" d="M 58.992188 271.171875 L 58.992188 116.714844 C 58.992188 102.054688 62.488281 88.757812 69.476562 76.84375 C 76.464844 64.910156 85.925781 55.359375 97.867188 48.1875 C 109.796875 41.023438 123.101562 37.4375 137.769531 37.4375 L 261.011719 37.4375 C 265.777344 37.4375 270.039062 38.894531 273.789062 41.796875 C 277.535156 44.710938 280.265625 48.203125 281.976562 52.28125 L 301.414062 71.183594 C 305.824219 75.628906 308.039062 80.570312 308.039062 86.027344 L 308.039062 119.277344 C 308.039062 124.734375 305.90625 129.6875 301.648438 134.121094 C 297.386719 138.539062 292.363281 140.742188 286.570312 140.742188 L 271.226562 140.742188 C 278.035156 144.855469 283.316406 150.476562 287.070312 157.617188 L 303.445312 173.992188 C 307.1875 177.742188 310.175781 182.003906 312.398438 186.769531 C 314.609375 191.546875 315.726562 196.839844 315.726562 202.644531 L 315.726562 296.734375 C 315.726562 307.980469 311.714844 317.609375 303.710938 325.621094 C 295.699219 333.625 286.070312 337.636719 274.824219 337.636719 L 127.019531 337.636719 C 114.746094 337.636719 105.03125 333.714844 97.867188 325.886719 L 79.460938 307.480469 C 73.3125 303.730469 68.363281 298.703125 64.617188 292.40625 C 60.875 286.082031 58.992188 279.011719 58.992188 271.171875 Z M 58.992188 271.171875 " fill-opacity="1" fill-rule="nonzero"/></g><path fill="#1e1e1e" d="M 137 228.152344 L 176.371094 228.152344 L 176.371094 275.445312 L 161.03125 275.445312 L 159.765625 266.492188 L 159.132812 266.492188 C 156.738281 269.40625 153.449219 271.835938 149.28125 273.78125 C 145.105469 275.730469 140.378906 276.710938 135.105469 276.710938 C 127 276.710938 119.601562 274.738281 112.90625 270.785156 C 106.222656 266.816406 100.964844 261.351562 97.128906 254.378906 C 93.3125 247.390625 91.40625 239.503906 91.40625 230.714844 C 91.40625 221.929688 93.335938 214.035156 97.195312 207.019531 C 101.074219 199.988281 106.355469 194.523438 113.039062 190.613281 C 119.734375 186.683594 127.089844 184.722656 135.105469 184.722656 C 142.601562 184.722656 149.199219 186.320312 154.90625 189.515625 C 160.605469 192.710938 165.164062 196.761719 168.585938 201.660156 C 171.996094 206.546875 174.34375 211.546875 175.605469 216.671875 L 154.640625 216.671875 C 153.109375 213.261719 150.589844 210.382812 147.085938 208.050781 C 143.597656 205.707031 139.605469 204.523438 135.105469 204.523438 C 130.660156 204.523438 126.691406 205.589844 123.1875 207.71875 C 119.703125 209.847656 116.941406 212.902344 114.902344 216.871094 C 112.855469 220.824219 111.839844 225.441406 111.839844 230.714844 C 111.839844 236 112.855469 240.625 114.902344 244.59375 C 116.941406 248.546875 119.703125 251.582031 123.1875 253.714844 C 126.691406 255.84375 130.660156 256.910156 135.105469 256.910156 C 139.179688 256.910156 142.707031 256.144531 145.6875 254.613281 C 148.683594 253.082031 151.011719 251.210938 152.675781 248.988281 C 154.339844 246.773438 155.378906 244.59375 155.804688 242.464844 L 155.804688 242.230469 L 137 242.230469 Z M 137 228.152344 " fill-opacity="1" fill-rule="nonzero"/><path fill="#1e1e1e" d="M 234.128906 228.152344 L 273.5 228.152344 L 273.5 275.445312 L 258.15625 275.445312 L 256.894531 266.492188 L 256.261719 266.492188 C 253.863281 269.40625 250.578125 271.835938 246.410156 273.78125 C 242.234375 275.730469 237.507812 276.710938 232.230469 276.710938 C 224.128906 276.710938 216.730469 274.738281 210.03125 270.785156 C 203.351562 266.816406 198.09375 261.351562 194.257812 254.378906 C 190.4375 247.390625 188.535156 239.503906 188.535156 230.714844 C 188.535156 221.929688 190.464844 214.035156 194.324219 207.019531 C 198.203125 199.988281 203.484375 194.523438 210.167969 190.613281 C 216.863281 186.683594 224.21875 184.722656 232.230469 184.722656 C 239.726562 184.722656 246.328125 186.320312 252.035156 189.515625 C 257.734375 192.710938 262.292969 196.761719 265.710938 201.660156 C 269.125 206.546875 271.46875 211.546875 272.734375 216.671875 L 251.769531 216.671875 C 250.238281 213.261719 247.714844 210.382812 244.214844 208.050781 C 240.726562 205.707031 236.734375 204.523438 232.230469 204.523438 C 227.789062 204.523438 223.820312 205.589844 220.316406 207.71875 C 216.832031 209.847656 214.070312 212.902344 212.03125 216.871094 C 209.984375 220.824219 208.96875 225.441406 208.96875 230.714844 C 208.96875 236 209.984375 240.625 212.03125 244.59375 C 214.070312 248.546875 216.832031 251.582031 220.316406 253.714844 C 223.820312 255.84375 227.789062 256.910156 232.230469 256.910156 C 236.308594 256.910156 239.835938 256.144531 242.816406 254.613281 C 245.808594 253.082031 248.140625 251.210938 249.804688 248.988281 C 251.46875 246.773438 252.507812 244.59375 252.933594 242.464844 L 252.933594 242.230469 L 234.128906 242.230469 Z M 234.128906 228.152344 " fill-opacity="1" fill-rule="nonzero"/></svg>